<?xml version="1.0" encoding="UTF-8" standalone="no" ?>
<!DOCTYPE svg PUBLIC "-//W3C//DTD SVG 1.1//EN" "http://www.w3.org/Graphics/SVG/1.1/DTD/svg11.dtd">
<svg xmlns="http://www.w3.org/2000/svg" xmlns:xlink="http://www.w3.org/1999/xlink" version="1.1" width="1080" height="1080" viewBox="0 0 1080 1080" xml:space="preserve">
<desc>Created with Fabric.js 5.2.4</desc>
<defs>
</defs>
<g transform="matrix(1 0 0 1 540 540)" id="3ee2f56d-eabb-4e9b-b138-36819fd3272c"  >
<rect style="stroke: none; stroke-width: 1; stroke-dasharray: none; stroke-linecap: butt; stroke-dashoffset: 0; stroke-linejoin: miter; stroke-miterlimit: 4; fill: rgb(255,255,255); fill-rule: nonzero; opacity: 1; visibility: hidden;" vector-effect="non-scaling-stroke"  x="-540" y="-540" rx="0" ry="0" width="1080" height="1080" />
</g>
<g transform="matrix(1 0 0 1 540 540)" id="cc692467-1eed-469c-9329-27237fef1630"  >
</g>
<g transform="matrix(2.11 0 0 2.11 540 540)"  >
<path style="stroke: rgb(0,0,0); stroke-width: 0; stroke-dasharray: none; stroke-linecap: butt; stroke-dashoffset: 0; stroke-linejoin: miter; stroke-miterlimit: 4; fill: rgb(0,0,0); fill-rule: nonzero; opacity: 1;"  transform=" translate(-257.25, -256.38)" d="M 409.28 19.313 C 388.77299999999997 19.653 368.44399999999996 27.558 352.75 43.25 C 332.192 63.808 324.927 92.81 330.562 119.406 L 331.594 124.34400000000001 L 328 127.938 L 284.594 171.344 C 288.454 174.25 291.76099999999997 177.84199999999998 294.314 181.969 C 301.48 193.559 300.619 210.659 288.094 223.187 L 276.12399999999997 235.155 L 306.56199999999995 265.625 L 386.12499999999994 186.062 L 389.68799999999993 182.46800000000002 L 394.65599999999995 183.52800000000002 C 421.09599999999995 189.05300000000003 449.792 181.54800000000003 470.40599999999995 160.93500000000003 C 494.00199999999995 137.34000000000003 499.924 103.23900000000003 489.09399999999994 73.84200000000003 L 439.8739999999999 123.09200000000003 C 426.16399999999993 136.80000000000004 403.5739999999999 138.10200000000003 389.7809999999999 124.31200000000003 C 375.9909999999999 110.51900000000003 376.7109999999999 87.69400000000002 390.5949999999999 73.81200000000003 L 439.81499999999994 24.562000000000026 C 431.2699999999999 21.412000000000027 422.3399999999999 19.632000000000026 413.37499999999994 19.342000000000027 C 412.0079999999999 19.297000000000025 410.64899999999994 19.28800000000003 409.2819999999999 19.310000000000027 z M 72.157 21.53 C 58.623999999999995 21.692 46.3 27.664 37.22 37.22 C 19.057 56.328 13.645 88.3 41.78 116.438 L 127.906 202.562 C 158.156 205.29500000000002 180.91 229.22400000000002 181.812 260.094 L 182 266 C 182.883 271.654 186.31 276.126 190.844 278.47 C 196.578 281.43300000000005 203.231 281.615 210.469 274.375 L 274.874 209.969 C 282.59200000000004 202.249 281.77000000000004 197.253 278.404 191.81199999999998 C 275.04 186.36999999999998 267.132 181.749 259.594 181.749 L 259.404 181.749 L 259.218 181.719 C 229.09300000000002 180.421 205.79100000000003 158.232 202.71800000000002 128.719 L 116.12300000000002 42.123999999999995 C 100.84 26.84 85.69 21.37 72.155 21.53 z M 263.34499999999997 248.844 L 249.31499999999997 262.87399999999997 L 385.81499999999994 399.40599999999995 L 389.12499999999994 402.71899999999994 L 388.46999999999997 407.3739999999999 L 383.87499999999994 439.1869999999999 L 461.06299999999993 488.5619999999999 L 489 460.625 L 439.625 383.405 L 407.845 388 L 403.187 388.688 L 399.875 385.375 L 263.345 248.845 z M 235.62499999999997 275.656 L 223.68899999999996 287.594 C 211.45099999999996 299.834 194.55499999999995 301.454 182.25099999999998 295.094 C 177.736 292.76 173.73799999999997 289.43399999999997 170.59499999999997 285.37399999999997 L 128.81499999999997 327.15599999999995 L 125.21999999999997 330.74999999999994 L 120.24999999999997 329.68699999999995 C 93.65399999999997 324.05499999999995 64.64999999999998 331.31899999999996 44.093999999999966 351.87499999999994 C 20.495999999999967 375.47099999999995 14.573999999999966 409.57199999999995 25.405999999999967 438.96899999999994 L 74.65599999999996 389.71899999999994 C 88.53899999999996 375.8419999999999 111.36599999999996 375.1139999999999 125.15599999999996 388.9049999999999 C 138.94799999999995 402.6969999999999 137.64999999999998 425.28899999999993 123.93599999999996 438.9989999999999 L 74.68599999999996 488.2489999999999 C 104.08399999999996 499.0789999999999 138.18399999999997 493.1549999999999 161.78099999999995 469.5609999999999 C 182.39399999999995 448.9459999999999 189.89499999999995 420.21899999999994 184.37599999999995 393.78099999999995 L 183.34599999999995 388.84299999999996 L 186.90599999999995 385.28 L 266.09599999999995 306.09399999999994 L 235.62599999999995 275.65599999999995 z" stroke-linecap="round" />
</g>
</svg>